<?xml version="1.0" encoding="UTF-8"?>
<svg id="Layer_2" data-name="Layer 2" xmlns="http://www.w3.org/2000/svg" viewBox="0 0 34.99 34.99">
  <defs>
    <style>
      .cls-1 {
        fill: #3192d0;
      }
    </style>
  </defs>
  <g id="Layer_1-2" data-name="Layer 1">
    <g>
      <circle class="cls-1" cx="17.5" cy="9.54" r="9.54"/>
      <path class="cls-1" d="m31.08,24.27c-1.5-.77-3.9-1.85-6.76-2.63-.4-.11-.82.11-.96.5l-3.26,9.09-.99-4.94,1.52-4.57c.08-.24.04-.51-.11-.72-.15-.21-.39-.33-.64-.33h-4.77c-.26,0-.5.12-.64.33-.15.21-.19.47-.11.72l1.52,4.57-.85,4.24-.14.69-3.26-9.09c-.14-.39-.56-.61-.96-.5-2.86.77-5.26,1.85-6.76,2.63-2.41,1.24-3.91,3.69-3.91,6.38v1.16c0,1.75,1.43,3.18,3.18,3.18h28.63c1.75,0,3.18-1.43,3.18-3.18v-1.16c0-2.7-1.5-5.14-3.91-6.38Z"/>
    </g>
  </g>
</svg>