<svg xmlns="http://www.w3.org/2000/svg" width="32.685" height="22.269" viewBox="0 0 32.685 22.269">
  <path id="eye" d="M30.965,14.095A17.347,17.347,0,0,0,15.577,4.5,17.35,17.35,0,0,0,.188,14.1a1.75,1.75,0,0,0,0,1.579,17.347,17.347,0,0,0,15.388,9.595,17.35,17.35,0,0,0,15.388-9.6A1.75,1.75,0,0,0,30.965,14.095ZM15.577,22.673a7.788,7.788,0,1,1,7.788-7.788A7.788,7.788,0,0,1,15.577,22.673Zm0-12.98a5.155,5.155,0,0,0-1.369.2,2.588,2.588,0,0,1-3.618,3.618,5.18,5.18,0,1,0,4.987-3.823Z" transform="translate(0.766 -3.75)" fill="none" stroke="#fff" stroke-width="1.5"/>
</svg>
