<svg xmlns="http://www.w3.org/2000/svg" width="20.978" height="19.107" viewBox="0 0 20.978 19.107">
  <g id="fff" transform="translate(0.75 0.75)">
    <path id="Stroke_1" data-name="Stroke 1" d="M15.675,3.581h0a1.012,1.012,0,0,1-.916-.587c-.3-.648-.686-1.476-.914-1.927A1.763,1.763,0,0,0,12.211,0C12.2,0,7.279,0,7.267,0A1.764,1.764,0,0,0,5.633,1.067c-.226.451-.611,1.279-.913,1.927a1.013,1.013,0,0,1-.916.587h0A3.826,3.826,0,0,0,0,7.43v6.327a3.827,3.827,0,0,0,3.8,3.85H15.675a3.827,3.827,0,0,0,3.8-3.85V7.43A3.826,3.826,0,0,0,15.675,3.581Z" fill="#28aae1" stroke="#fff" stroke-linecap="round" stroke-linejoin="round" stroke-miterlimit="10" stroke-width="1.5"/>
    <path id="Stroke_3" data-name="Stroke 3" d="M0,3.391a3.379,3.379,0,0,0,3.348,3.4A3.394,3.394,0,0,0,3.35,0,3.376,3.376,0,0,0,0,3.391Z" transform="translate(6.393 6.823)" fill="#28aae1" stroke="#fff" stroke-linecap="round" stroke-linejoin="round" stroke-miterlimit="10" stroke-width="1.5"/>
    <path id="Fill_5" data-name="Fill 5" d="M.95,2.126a1.131,1.131,0,0,1-.315-.083A1.061,1.061,0,0,1,.3,1.807,1.1,1.1,0,0,1,0,1.066,1.046,1.046,0,0,1,.087.647,1.085,1.085,0,0,1,.335.282,1.2,1.2,0,0,1,.655.075,1.067,1.067,0,0,1,1.794.3a1.025,1.025,0,0,1,.2.278l.024.062a1.049,1.049,0,0,1,.087.422,1.09,1.09,0,0,1-.307.752,1.044,1.044,0,0,1-.641.308l-.1.005Z" transform="translate(13.951 5.595)" fill="none" stroke="#fff" stroke-width="1"/>
  </g>
</svg>
