<svg xmlns="http://www.w3.org/2000/svg" width="3.106" height="3.155" viewBox="0 0 3.106 3.155">
  <path id="Fill_5" data-name="Fill 5" d="M.95,2.126a1.131,1.131,0,0,1-.315-.083A1.061,1.061,0,0,1,.3,1.807,1.1,1.1,0,0,1,0,1.066,1.046,1.046,0,0,1,.087.647,1.085,1.085,0,0,1,.335.282,1.2,1.2,0,0,1,.655.075,1.067,1.067,0,0,1,1.794.3a1.025,1.025,0,0,1,.2.278l.024.062a1.049,1.049,0,0,1,.087.422,1.09,1.09,0,0,1-.307.752,1.044,1.044,0,0,1-.641.308l-.1.005Z" transform="translate(0.5 0.523)" fill="none" stroke="#fff" stroke-width="1"/>
</svg>
