<svg xmlns="http://www.w3.org/2000/svg" width="19" height="19" viewBox="0 0 19 19">
  <g id="Group_167" data-name="Group 167" transform="translate(-1391 -392)">
    <circle id="Ellipse_7" data-name="Ellipse 7" cx="9.5" cy="9.5" r="9.5" transform="translate(1391 392)" fill="#707070"/>
    <path id="Icon_awesome-times" data-name="Icon awesome-times" d="M6.533,10.362,9.227,7.669a.847.847,0,0,0,0-1.2l-.6-.6a.847.847,0,0,0-1.2,0L4.737,8.566,2.044,5.873a.847.847,0,0,0-1.2,0l-.6.6a.847.847,0,0,0,0,1.2l2.694,2.694L.248,13.056a.847.847,0,0,0,0,1.2l.6.6a.847.847,0,0,0,1.2,0l2.694-2.694,2.694,2.694a.847.847,0,0,0,1.2,0l.6-.6a.847.847,0,0,0,0-1.2Z" transform="translate(1395.763 391.138)" fill="#fff"/>
  </g>
</svg>
