<svg id="Group_11071" data-name="Group 11071" xmlns="http://www.w3.org/2000/svg" xmlns:xlink="http://www.w3.org/1999/xlink" width="19.333" height="16.583" viewBox="0 0 19.333 16.583">
  <defs>
    <clipPath id="clip-path">
      <rect id="Rectangle_37" data-name="Rectangle 37" width="19.333" height="16.583" fill="#575858"/>
    </clipPath>
  </defs>
  <g id="Group_11070" data-name="Group 11070" clip-path="url(#clip-path)">
    <path id="Path_13" data-name="Path 13" d="M0,20.7a3.477,3.477,0,0,1,1.159-1.9,2.951,2.951,0,0,1,1.875-.685q3.7,0,7.4,0c.223,0,.511-.046.569.239a1.313,1.313,0,0,1-.068,1.022c-.118.178-.344.121-.529.121q-3.529,0-7.058,0a1.772,1.772,0,0,0-1.97,1.958q0,4.265,0,8.53a1.789,1.789,0,0,0,1.959,1.943q4.265,0,8.53,0a1.767,1.767,0,0,0,1.942-1.948c0-.994,0-1.988,0-2.982,0-.512.076-.581.6-.586.1,0,.2,0,.3,0,.329-.013.487.137.486.473,0,1.2.027,2.391-.011,3.585a3.073,3.073,0,0,1-2.93,2.832c-3.107.031-6.215.025-9.322,0A3.064,3.064,0,0,1,.168,31.243c-.057-.166-.112-.333-.168-.5V20.7" transform="translate(0 -16.748)" fill="#575858"/>
    <path id="Path_14" data-name="Path 14" d="M109.8,6.442c-.47.591-.8.615-1.329.091-.482-.479-.974-.949-1.436-1.446-.224-.242-.356-.247-.595-.006q-3.189,3.218-6.4,6.413l-.268.266a.4.4,0,0,1-.651,0c-.331-.345-.677-.676-1.013-1.016s-.334-.466.014-.814q2.414-2.418,4.832-4.833l1.655-1.655c.383-.383.383-.383-.013-.779-.472-.472-.938-.949-1.417-1.413a.717.717,0,0,1-.2-.853A.673.673,0,0,1,103.685,0c1.775,0,3.549.009,5.324,0a.869.869,0,0,1,.793.477Z" transform="translate(-90.468 0)" fill="#575858"/>
  </g>
</svg>
