<svg xmlns="http://www.w3.org/2000/svg" width="15.991" height="19.466" viewBox="0 0 15.991 19.466">
  <g id="Group_11137" data-name="Group 11137" transform="translate(-683.388 -16)">
    <path id="Path_12163" data-name="Path 12163" d="M17.013,30.985a2.356,2.356,0,0,0,2.4-2.649H14.6A2.358,2.358,0,0,0,17.013,30.985Z" transform="translate(674.372 4.481)" fill="#28aae1"/>
    <path id="Path_12164" data-name="Path 12164" d="M22.549,18.742c-.77-1.015-2.284-1.61-2.284-6.153,0-4.664-2.059-6.538-3.979-6.988-.18-.045-.31-.1-.31-.295V5.16a1.22,1.22,0,1,0-2.439,0v.145c0,.185-.13.25-.31.295-1.925.455-3.979,2.324-3.979,6.988,0,4.544-1.515,5.134-2.284,6.153a.992.992,0,0,0,.795,1.59h14A.992.992,0,0,0,22.549,18.742Z" transform="translate(676.627 12.069)" fill="#28aae1"/>
  </g>
</svg>
