<svg xmlns="http://www.w3.org/2000/svg" width="20.329" height="16.511" viewBox="0 0 20.329 16.511">
  <path id="i5" d="M18.239,7.5c.013.181.013.361.013.542A11.773,11.773,0,0,1,6.4,19.892,11.774,11.774,0,0,1,0,18.021a8.619,8.619,0,0,0,1.006.052,8.344,8.344,0,0,0,5.173-1.78,4.174,4.174,0,0,1-3.9-2.889,5.254,5.254,0,0,0,.787.064,4.407,4.407,0,0,0,1.1-.142A4.167,4.167,0,0,1,.826,9.237V9.185a4.2,4.2,0,0,0,1.883.529,4.173,4.173,0,0,1-1.29-5.572A11.843,11.843,0,0,0,10.01,8.5a4.7,4.7,0,0,1-.1-.955A4.17,4.17,0,0,1,17.117,4.7,8.2,8.2,0,0,0,19.761,3.69a4.155,4.155,0,0,1-1.832,2.3,8.352,8.352,0,0,0,2.4-.645A8.956,8.956,0,0,1,18.239,7.5Z" transform="translate(0 -3.381)" fill="#28aae1"/>
</svg>
