<svg xmlns="http://www.w3.org/2000/svg" width="23.897" height="16.802" viewBox="0 0 23.897 16.802">
  <path id="i7" d="M24.447,7.129A3,3,0,0,0,22.334,5C20.471,4.5,13,4.5,13,4.5s-7.473,0-9.336.5A3,3,0,0,0,1.549,7.129a31.5,31.5,0,0,0-.5,5.789,31.5,31.5,0,0,0,.5,5.789A2.958,2.958,0,0,0,3.662,20.8c1.864.5,9.336.5,9.336.5s7.473,0,9.336-.5a2.958,2.958,0,0,0,2.113-2.092,31.5,31.5,0,0,0,.5-5.789,31.5,31.5,0,0,0-.5-5.789ZM10.554,16.471V9.365L16.8,12.918l-6.246,3.553Z" transform="translate(-1.05 -4.5)" fill="#28aae1"/>
</svg>
