<svg xmlns="http://www.w3.org/2000/svg" width="17.471" height="17.467" viewBox="0 0 17.471 17.467">
  <path id="i8" d="M8.732,6.493a4.478,4.478,0,1,0,4.478,4.478A4.471,4.471,0,0,0,8.732,6.493Zm0,7.39a2.912,2.912,0,1,1,2.912-2.912A2.917,2.917,0,0,1,8.732,13.883ZM14.438,6.31a1.045,1.045,0,1,1-1.045-1.045A1.042,1.042,0,0,1,14.438,6.31ZM17.4,7.37a5.169,5.169,0,0,0-1.411-3.66A5.2,5.2,0,0,0,12.334,2.3c-1.442-.082-5.765-.082-7.207,0a5.2,5.2,0,0,0-3.66,1.407A5.186,5.186,0,0,0,.056,7.366c-.082,1.442-.082,5.765,0,7.207a5.169,5.169,0,0,0,1.411,3.66,5.21,5.21,0,0,0,3.66,1.411c1.442.082,5.765.082,7.207,0a5.169,5.169,0,0,0,3.66-1.411,5.2,5.2,0,0,0,1.411-3.66c.082-1.442.082-5.761,0-7.2Zm-1.863,8.75a2.948,2.948,0,0,1-1.66,1.66c-1.15.456-3.878.351-5.149.351s-4,.1-5.149-.351a2.948,2.948,0,0,1-1.66-1.66c-.456-1.15-.351-3.878-.351-5.149s-.1-4,.351-5.149a2.948,2.948,0,0,1,1.66-1.66c1.15-.456,3.878-.351,5.149-.351s4-.1,5.149.351a2.948,2.948,0,0,1,1.66,1.66c.456,1.15.351,3.878.351,5.149S16,14.974,15.542,16.12Z" transform="translate(0.005 -2.238)" fill="#28aae1"/>
</svg>
