<svg xmlns="http://www.w3.org/2000/svg" width="19.144" height="13.461" viewBox="0 0 19.144 13.461">
  <path id="Icon_awesome-youtube" data-name="Icon awesome-youtube" d="M19.794,6.606A2.406,2.406,0,0,0,18.1,4.9c-1.493-.4-7.48-.4-7.48-.4s-5.987,0-7.48.4a2.406,2.406,0,0,0-1.693,1.7,25.235,25.235,0,0,0-.4,4.638,25.235,25.235,0,0,0,.4,4.638,2.37,2.37,0,0,0,1.693,1.676c1.493.4,7.48.4,7.48.4s5.987,0,7.48-.4a2.37,2.37,0,0,0,1.693-1.676,25.235,25.235,0,0,0,.4-4.638,25.235,25.235,0,0,0-.4-4.638ZM8.664,14.091V8.4l5,2.847-5,2.846Z" transform="translate(-1.05 -4.5)" fill="#28aae1"/>
</svg>
