<svg xmlns="http://www.w3.org/2000/svg" width="31.183" height="15.591" viewBox="0 0 31.183 15.591">
  <path id="Icon_awesome-language" data-name="Icon awesome-language" d="M7.411,13.581c-.171-.59-.38-1.618-.38-1.618H7.006s-.21,1.028-.38,1.618l-.541,1.827H7.942Zm22.6-6.831H16.371V22.341H30.013a1.167,1.167,0,0,0,1.169-1.169V7.919A1.167,1.167,0,0,0,30.013,6.75ZM28.844,12.6a.586.586,0,0,1-.585.585H27.7a8.73,8.73,0,0,1-2.08,3.406,15.105,15.105,0,0,0,1.272.877.586.586,0,0,1,.2.789l-.385.677a.586.586,0,0,1-.814.21,16.952,16.952,0,0,1-1.725-1.213,17.183,17.183,0,0,1-1.725,1.213.586.586,0,0,1-.814-.21l-.385-.677a.584.584,0,0,1,.2-.789,13.9,13.9,0,0,0,1.272-.877A11.306,11.306,0,0,1,21.7,15.335a.583.583,0,0,1,.18-.833l.317-.19.356-.21a.589.589,0,0,1,.78.166,9.291,9.291,0,0,0,.848,1.018,7.453,7.453,0,0,0,1.462-2.1H20.074a.586.586,0,0,1-.585-.585v-.78a.586.586,0,0,1,.585-.585h3.118v-.78a.586.586,0,0,1,.585-.585h.78a.586.586,0,0,1,.585.585v.78h3.118a.586.586,0,0,1,.585.585ZM0,7.919V21.172a1.167,1.167,0,0,0,1.169,1.169H14.812V6.75H1.169A1.167,1.167,0,0,0,0,7.919ZM2.87,18.448l2.8-8.239a.582.582,0,0,1,.555-.395H7.81a.594.594,0,0,1,.555.395l2.8,8.239a.586.586,0,0,1-.555.775H9.5a.585.585,0,0,1-.56-.419L8.478,17.25H5.545L5.1,18.8a.589.589,0,0,1-.56.424H3.425a.588.588,0,0,1-.555-.775Z" transform="translate(0 -6.75)" fill="#28aae1"/>
</svg>
