<svg xmlns="http://www.w3.org/2000/svg" width="28.59" height="28.59" viewBox="0 0 28.59 28.59">
  <g id="Icon_feather-settings" data-name="Icon feather-settings" transform="translate(-0.75 -0.75)">
    <path id="Path_11" data-name="Path 11" d="M20.888,17.194A3.694,3.694,0,1,1,17.194,13.5,3.694,3.694,0,0,1,20.888,17.194Z" transform="translate(-2.149 -2.149)" fill="none" stroke="#fff" stroke-linecap="round" stroke-linejoin="round" stroke-width="1.5"/>
    <path id="Path_12" data-name="Path 12" d="M24.157,18.739a2.032,2.032,0,0,0,.406,2.241l.074.074a2.464,2.464,0,1,1-3.485,3.485l-.074-.074a2.048,2.048,0,0,0-3.472,1.453v.209a2.463,2.463,0,0,1-4.925,0v-.111a2.032,2.032,0,0,0-1.33-1.859,2.032,2.032,0,0,0-2.241.406l-.074.074a2.464,2.464,0,1,1-3.485-3.485l.074-.074a2.048,2.048,0,0,0-1.453-3.472H3.963a2.463,2.463,0,0,1,0-4.925h.111a2.032,2.032,0,0,0,1.859-1.33A2.032,2.032,0,0,0,5.527,9.11l-.074-.074A2.464,2.464,0,1,1,8.937,5.551l.074.074a2.032,2.032,0,0,0,2.241.406h.1a2.032,2.032,0,0,0,1.231-1.859V3.963a2.463,2.463,0,0,1,4.925,0v.111A2.048,2.048,0,0,0,20.98,5.527l.074-.074a2.464,2.464,0,1,1,3.485,3.485l-.074.074a2.032,2.032,0,0,0-.406,2.241v.1a2.032,2.032,0,0,0,1.859,1.231h.209a2.463,2.463,0,0,1,0,4.925h-.111a2.032,2.032,0,0,0-1.859,1.231Z" transform="translate(0 0)" fill="none" stroke="#fff" stroke-linecap="round" stroke-linejoin="round" stroke-width="1.5"/>
  </g>
</svg>
