<svg xmlns="http://www.w3.org/2000/svg" width="20.952" height="18.624" viewBox="0 0 20.952 18.624">
  <path id="Icon_awesome-shopping-cart" data-name="Icon awesome-shopping-cart" d="M19.21,10.96l1.72-7.566a.873.873,0,0,0-.851-1.066H5.791L5.458.7A.873.873,0,0,0,4.6,0H.873A.873.873,0,0,0,0,.873v.582a.873.873,0,0,0,.873.873H3.415L5.97,14.82a2.037,2.037,0,1,0,2.439.312h7.626a2.036,2.036,0,1,0,2.313-.378l.2-.883A.873.873,0,0,0,17.7,12.8H7.934L7.7,11.64H18.359A.873.873,0,0,0,19.21,10.96Z" fill="#28aae1"/>
</svg>
