<svg xmlns="http://www.w3.org/2000/svg" width="13.997" height="13.994" viewBox="0 0 13.997 13.994">
  <path id="Icon_awesome-instagram" data-name="Icon awesome-instagram" d="M6.995,5.647a3.588,3.588,0,1,0,3.588,3.588A3.582,3.582,0,0,0,6.995,5.647Zm0,5.92A2.333,2.333,0,1,1,9.327,9.235,2.337,2.337,0,0,1,6.995,11.567ZM11.566,5.5a.837.837,0,1,1-.837-.837A.835.835,0,0,1,11.566,5.5Zm2.376.849a4.141,4.141,0,0,0-1.13-2.932A4.169,4.169,0,0,0,9.88,2.287c-1.155-.066-4.618-.066-5.774,0A4.163,4.163,0,0,0,1.174,3.414,4.155,4.155,0,0,0,.044,6.346c-.066,1.155-.066,4.618,0,5.774a4.141,4.141,0,0,0,1.13,2.932,4.174,4.174,0,0,0,2.932,1.13c1.155.066,4.618.066,5.774,0a4.141,4.141,0,0,0,2.932-1.13,4.169,4.169,0,0,0,1.13-2.932c.066-1.155.066-4.615,0-5.77Zm-1.493,7.01a2.362,2.362,0,0,1-1.33,1.33,15.422,15.422,0,0,1-4.125.281A15.542,15.542,0,0,1,2.87,14.69a2.362,2.362,0,0,1-1.33-1.33,15.422,15.422,0,0,1-.281-4.125A15.542,15.542,0,0,1,1.54,5.11a2.362,2.362,0,0,1,1.33-1.33A15.422,15.422,0,0,1,6.995,3.5a15.542,15.542,0,0,1,4.125.281,2.362,2.362,0,0,1,1.33,1.33,15.422,15.422,0,0,1,.281,4.125A15.413,15.413,0,0,1,12.45,13.359Z" transform="translate(0.005 -2.238)" fill="#28aae1"/>
</svg>
