<svg xmlns="http://www.w3.org/2000/svg" width="16.286" height="13.227" viewBox="0 0 16.286 13.227">
  <path id="Icon_awesome-twitter" data-name="Icon awesome-twitter" d="M14.612,6.677c.01.145.01.289.01.434a9.432,9.432,0,0,1-9.5,9.5A9.432,9.432,0,0,1,0,15.11a6.905,6.905,0,0,0,.806.041A6.685,6.685,0,0,0,4.95,13.725,3.344,3.344,0,0,1,1.829,11.41a4.209,4.209,0,0,0,.63.052,3.53,3.53,0,0,0,.878-.114A3.338,3.338,0,0,1,.661,8.072V8.031a3.362,3.362,0,0,0,1.509.424A3.343,3.343,0,0,1,1.137,3.99,9.488,9.488,0,0,0,8.019,7.483a3.768,3.768,0,0,1-.083-.765,3.341,3.341,0,0,1,5.777-2.284,6.572,6.572,0,0,0,2.118-.806,3.329,3.329,0,0,1-1.467,1.839,6.691,6.691,0,0,0,1.922-.517,7.175,7.175,0,0,1-1.674,1.726Z" transform="translate(0 -3.381)" fill="#28aae1"/>
</svg>
