<svg xmlns="http://www.w3.org/2000/svg" width="27.999" height="19.147" viewBox="0 0 27.999 19.147">
  <path id="Icon_awesome-eye" data-name="Icon awesome-eye" d="M26.311,12.653A14.74,14.74,0,0,0,13.235,4.5,14.742,14.742,0,0,0,.16,12.653a1.487,1.487,0,0,0,0,1.341,14.74,14.74,0,0,0,13.075,8.153,14.742,14.742,0,0,0,13.075-8.153A1.487,1.487,0,0,0,26.311,12.653ZM13.235,19.941a6.618,6.618,0,1,1,6.618-6.618A6.618,6.618,0,0,1,13.235,19.941Zm0-11.029a4.38,4.38,0,0,0-1.163.174A2.2,2.2,0,0,1,9,12.16a4.4,4.4,0,1,0,4.238-3.249Z" transform="translate(0.764 -3.75)" fill="none" stroke="#fff" stroke-width="1.5"/>
</svg>
