<svg xmlns="http://www.w3.org/2000/svg" width="19.144" height="14.358" viewBox="0 0 19.144 14.358">
  <path id="ie2" d="M18.782,9.241a.225.225,0,0,1,.363.176v7.646a1.8,1.8,0,0,1-1.795,1.795H1.795A1.8,1.8,0,0,1,0,17.063V9.421a.224.224,0,0,1,.363-.176c.838.651,1.948,1.477,5.762,4.248.789.576,2.12,1.787,3.447,1.78,1.335.011,2.692-1.226,3.451-1.78C16.837,10.722,17.944,9.892,18.782,9.241ZM9.572,14.072c.867.015,2.116-1.092,2.745-1.548,4.962-3.6,5.339-3.915,6.484-4.812a.9.9,0,0,0,.344-.707v-.71A1.8,1.8,0,0,0,17.35,4.5H1.795A1.8,1.8,0,0,0,0,6.295v.71a.9.9,0,0,0,.344.707c1.144.894,1.522,1.211,6.484,4.812C7.456,12.98,8.7,14.087,9.572,14.072Z" transform="translate(0 -4.5)" fill="#28aae1"/>
</svg>
