<svg xmlns="http://www.w3.org/2000/svg" width="20.358" height="20.358" viewBox="0 0 20.358 20.358">
  <path id="ie4" d="M2.545,5.09H1.272A1.273,1.273,0,0,0,0,6.362V19.086a1.273,1.273,0,0,0,1.272,1.272H2.545a1.273,1.273,0,0,0,1.272-1.272V6.362A1.273,1.273,0,0,0,2.545,5.09ZM19.086,6.362V3.072a1.273,1.273,0,0,0-.373-.9l-1.8-1.8a1.272,1.272,0,0,0-.9-.373H6.362A1.273,1.273,0,0,0,5.09,1.272V19.086a1.273,1.273,0,0,0,1.272,1.272H19.086a1.273,1.273,0,0,0,1.272-1.272V7.634A1.273,1.273,0,0,0,19.086,6.362ZM11.452,17.177a.636.636,0,0,1-.636.636H9.543a.636.636,0,0,1-.636-.636V15.9a.636.636,0,0,1,.636-.636h1.272a.636.636,0,0,1,.636.636Zm0-5.09a.636.636,0,0,1-.636.636H9.543a.636.636,0,0,1-.636-.636V10.815a.636.636,0,0,1,.636-.636h1.272a.636.636,0,0,1,.636.636Zm5.09,5.09a.636.636,0,0,1-.636.636H14.633A.636.636,0,0,1,14,17.177V15.9a.636.636,0,0,1,.636-.636H15.9a.636.636,0,0,1,.636.636Zm0-5.09a.636.636,0,0,1-.636.636H14.633A.636.636,0,0,1,14,12.088V10.815a.636.636,0,0,1,.636-.636H15.9a.636.636,0,0,1,.636.636Zm.636-4.453H7V1.909h8.271V3.181a.636.636,0,0,0,.636.636h1.272Z" fill="#28aae1"/>
</svg>
