<svg id="ii1" xmlns="http://www.w3.org/2000/svg" xmlns:xlink="http://www.w3.org/1999/xlink" width="16.013" height="20.192" viewBox="0 0 16.013 20.192">
  <defs>
    <clipPath id="clip-path">
      <rect id="Rectangle_40" data-name="Rectangle 40" width="16.013" height="20.192" fill="#28aae1"/>
    </clipPath>
  </defs>
  <g id="Group_11079" data-name="Group 11079" clip-path="url(#clip-path)">
    <path id="Path_9073" data-name="Path 9073" d="M7.492,0H8.516A.905.905,0,0,0,8.61.025a3.92,3.92,0,0,1,3.3,3.744c0,.159.071.2.217.2.5-.005,1.01,0,1.515,0A1.423,1.423,0,0,1,15.1,5.3c.033.359.059.72.088,1.079q.114,1.423.227,2.846.084,1.06.167,2.12.112,1.413.226,2.826c.059.739.112,1.479.181,2.217a3.357,3.357,0,0,1-2.832,3.8H2.848a.677.677,0,0,0-.075-.022A3.286,3.286,0,0,1,0,16.864c0-.552.074-1.1.116-1.649.07-.916.137-1.833.21-2.749.1-1.23.2-2.459.3-3.689.094-1.164.18-2.329.28-3.493A1.418,1.418,0,0,1,2.344,3.969c.5,0,1.01-.005,1.515,0,.163,0,.23-.043.238-.221A3.847,3.847,0,0,1,5.628.789,4.093,4.093,0,0,1,7.492,0M8,18.994c1.535,0,3.07,0,4.6,0a2.1,2.1,0,0,0,2.131-1.637,3.385,3.385,0,0,0,.012-1.039c-.095-1.237-.2-2.473-.3-3.71-.086-1.08-.163-2.16-.247-3.24C14.1,8.077,14,6.788,13.894,5.5c-.018-.228-.1-.315-.337-.316-.479,0-.958,0-1.436,0-.154,0-.209.057-.207.209.006.394,0,.789,0,1.183a.607.607,0,1,1-1.21.005c0-.388-.006-.776,0-1.163,0-.165-.045-.235-.222-.235q-2.48.007-4.959,0c-.178,0-.226.069-.223.234.008.388,0,.776,0,1.163a.607.607,0,1,1-1.21,0c0-.4,0-.8,0-1.2,0-.134-.051-.19-.186-.189-.492,0-.984,0-1.476,0-.2,0-.3.087-.315.276q-.083,1-.159,2c-.071.916-.138,1.833-.211,2.749-.085,1.067-.177,2.133-.261,3.2q-.131,1.659-.254,3.319a2.028,2.028,0,0,0,.76,1.792,2.141,2.141,0,0,0,1.427.472q2.293,0,4.585,0M7.984,3.968h2.5c.117,0,.216.01.21-.17a2.684,2.684,0,0,0-5.36-.1c-.021.268-.021.269.255.269h2.4" transform="translate(0)" fill="#28aae1"/>
    <path id="Path_9074" data-name="Path 9074" d="M110.24,200.261a.608.608,0,0,1-.2.457q-1.5,1.506-3,3.008a.6.6,0,0,1-.923-.007q-.687-.677-1.362-1.365a.613.613,0,1,1,.859-.869c.273.265.545.532.8.809.12.128.192.141.324.006.79-.805,1.591-1.6,2.387-2.4a.684.684,0,0,1,.516-.243.6.6,0,0,1,.595.6" transform="translate(-99.388 -189.813)" fill="#28aae1"/>
  </g>
</svg>
