<svg xmlns="http://www.w3.org/2000/svg" width="27.209" height="24.348" viewBox="0 0 27.209 24.348">
  <path id="iiicart" d="M23.567,13.446l2.11-9.282a1.071,1.071,0,0,0-1.044-1.308H7.1L6.7.856A1.071,1.071,0,0,0,5.646,0H1.071A1.071,1.071,0,0,0,0,1.071v.714A1.071,1.071,0,0,0,1.071,2.856H4.189L7.324,18.181a2.5,2.5,0,1,0,2.992.382h9.355a2.5,2.5,0,1,0,2.838-.464l.246-1.083a1.071,1.071,0,0,0-1.044-1.308H9.733L9.441,14.28H22.523A1.071,1.071,0,0,0,23.567,13.446Z" transform="translate(0.75 0.75)" fill="none" stroke="#fff" stroke-width="1.5"/>
</svg>
