<svg id="imgff" xmlns="http://www.w3.org/2000/svg" width="297.359" height="211.941" viewBox="0 0 297.359 211.941">
  <path id="Path_2960" data-name="Path 2960" d="M272.951,716.6H530.878a.493.493,0,1,0,0-.986H272.951a.493.493,0,1,0,0,.986Z" transform="translate(-253.242 -504.655)" fill="#ccc"/>
  <path id="Path_11881" data-name="Path 11881" d="M370.186,299.807c-15.085-14.85-21.456-30.341-17.94-43.621,4.512-17.042,24.555-28.825,54.99-32.328l.112.978c-30.012,3.454-49.749,14.973-54.151,31.6-3.421,12.924,2.857,28.078,17.679,42.669Z" transform="translate(-300.923 -207.272)" fill="#f0f0f0"/>
  <path id="Path_11882" data-name="Path 11882" d="M574.152,491.176A236.137,236.137,0,0,1,514.547,483c-25.129-6.653-48.17-16.694-66.632-29.039l.547-.818c18.373,12.285,41.312,22.281,66.337,28.906,22.615,5.987,45.4,8.762,65.882,8.029l.036.983Q577.472,491.177,574.152,491.176Z" transform="translate(-359.348 -345.93)" fill="#f0f0f0"/>
  <path id="Path_11883" data-name="Path 11883" d="M764.822,357.22l-.315-.932c16.838-5.693,27.369-14.864,30.455-26.521,3.923-14.82-4.6-32.017-24-48.425-19.5-16.491-47.617-30.174-79.175-38.528l.252-.951c31.7,8.392,59.951,22.145,79.558,38.728,19.706,16.666,28.342,34.22,24.316,49.427C792.739,342.011,781.988,351.417,764.822,357.22Z" transform="translate(-506.828 -218.161)" fill="#f0f0f0"/>
  <path id="Path_11884" data-name="Path 11884" d="M362.6,457.874c-36.993-16.407-65.5-37.692-80.266-59.936l.82-.544c14.665,22.09,43.021,43.249,79.845,59.582Z" transform="translate(-259.215 -312.216)" fill="#f0f0f0"/>
  <path id="Path_11885" data-name="Path 11885" d="M796.653,604.83q-5.724,0-11.642-.256l.042-.983c29.448,1.275,55.43-2.249,75.142-10.193l.368.913C843.367,601.24,821.45,604.83,796.653,604.83Z" transform="translate(-563.204 -430.749)" fill="#f0f0f0"/>
  <path id="Path_11886" data-name="Path 11886" d="M574,199.363c-6.114-1.991-12.4-3.844-18.692-5.509-36.191-9.581-71.767-12.983-102.884-9.836l-.1-.979c31.233-3.158,66.931.252,103.235,9.864,6.307,1.67,12.614,3.529,18.745,5.525Z" transform="translate(-362.015 -181.896)" fill="#f0f0f0"/>
  <path id="Path_11887" data-name="Path 11887" d="M311.694,303.54c-15.085-14.85-21.456-30.341-17.94-43.621,4.512-17.042,24.555-28.825,54.99-32.328l.112.978c-30.012,3.454-49.749,14.973-54.152,31.6-3.421,12.924,2.857,28.078,17.679,42.669Z" transform="translate(-265.55 -209.529)" fill="#f0f0f0"/>
  <path id="Path_11888" data-name="Path 11888" d="M515.659,494.909a236.133,236.133,0,0,1-59.606-8.177c-25.13-6.653-48.171-16.694-66.632-29.039l.547-.818c18.373,12.285,41.312,22.281,66.337,28.906,22.615,5.987,45.4,8.762,65.882,8.029l.036.983Q518.979,494.91,515.659,494.909Z" transform="translate(-323.975 -348.187)" fill="#f0f0f0"/>
  <path id="Path_11889" data-name="Path 11889" d="M706.33,360.954l-.315-.932c16.838-5.693,27.369-14.863,30.455-26.521,3.923-14.82-4.6-32.017-24-48.425-19.5-16.491-47.617-30.174-79.175-38.528l.252-.951c31.7,8.391,59.951,22.145,79.558,38.728,19.706,16.666,28.342,34.22,24.316,49.427C734.247,345.745,723.5,355.151,706.33,360.954Z" transform="translate(-471.456 -220.419)" fill="#f0f0f0"/>
  <path id="Path_11890" data-name="Path 11890" d="M304.108,461.608c-36.993-16.407-65.5-37.692-80.266-59.936l.82-.544c14.665,22.09,43.021,43.249,79.845,59.582Z" transform="translate(-223.842 -314.474)" fill="#f0f0f0"/>
  <path id="Path_11891" data-name="Path 11891" d="M738.161,608.564q-5.723,0-11.642-.256l.042-.983c29.448,1.275,55.43-2.249,75.142-10.193l.368.913C784.875,604.974,762.958,608.564,738.161,608.564Z" transform="translate(-527.832 -433.007)" fill="#f0f0f0"/>
  <path id="Path_11892" data-name="Path 11892" d="M515.508,203.1c-6.114-1.991-12.4-3.844-18.692-5.509-36.191-9.581-71.768-12.983-102.884-9.836l-.1-.979c31.233-3.158,66.931.252,103.235,9.864,6.307,1.67,12.614,3.529,18.745,5.525Z" transform="translate(-326.642 -184.153)" fill="#f0f0f0"/>
  <path id="Path_11893" data-name="Path 11893" d="M247.089,336.687c7.07-7.927,18.347-12.758,28.567-9.866a48.937,48.937,0,0,0-19.1,27.644c-1.1,4.316-1.883,9.23-5.472,11.869a10.939,10.939,0,0,1-7.938,1.66,32.493,32.493,0,0,1-7.905-2.5l-.689.06C236.538,355.119,240.019,344.614,247.089,336.687Z" transform="translate(-230.321 -269.027)" fill="#f2f2f2"/>
  <path id="Path_11894" data-name="Path 11894" d="M275.723,327.951a41.828,41.828,0,0,0-21.936,13.457,18.014,18.014,0,0,0-3.037,4.757,10.331,10.331,0,0,0-.61,5.4,21.383,21.383,0,0,1,.473,5.154,6.326,6.326,0,0,1-2.681,4.424,16.433,16.433,0,0,1-6.084,2.4c-2.366.556-4.832,1.1-6.761,2.669-.234.191-.516-.183-.282-.373,3.355-2.736,8.019-2.384,11.731-4.371a6.406,6.406,0,0,0,3.551-4.378,16.589,16.589,0,0,0-.38-5.242,11.024,11.024,0,0,1,.4-5.305,16.653,16.653,0,0,1,2.843-4.856,40.582,40.582,0,0,1,9.448-8.461,42.568,42.568,0,0,1,13.27-5.741c.292-.071.345.395.055.465Z" transform="translate(-230.418 -269.936)" fill="#fff"/>
  <path id="Path_11895" data-name="Path 11895" d="M284.866,344.441a6.276,6.276,0,0,1-.193-8.124c.19-.233.562.051.371.285a5.811,5.811,0,0,0,.2,7.556C285.441,344.383,285.066,344.664,284.866,344.441Z" transform="translate(-259.784 -275.229)" fill="#fff"/>
  <path id="Path_11896" data-name="Path 11896" d="M272.756,382.123a12.1,12.1,0,0,0,8.4-2.661c.234-.19.516.184.282.373a12.581,12.581,0,0,1-8.75,2.751C272.39,382.566,272.456,382.1,272.756,382.123Z" transform="translate(-253.265 -301.341)" fill="#fff"/>
  <path id="Path_11897" data-name="Path 11897" d="M314.656,336.708a3.552,3.552,0,0,0,2.867,1.773c.3.017.235.481-.065.464a3.981,3.981,0,0,1-3.176-1.954.242.242,0,0,1,.046-.328.235.235,0,0,1,.328.046Z" transform="translate(-278.508 -275.461)" fill="#fff"/>
  <path id="Path_11898" data-name="Path 11898" d="M289.359,396.126c-.188-.005-.377-.011-.568-.013a46.777,46.777,0,0,0-7.576.442c-.194.024-.391.052-.584.081a49.316,49.316,0,0,0-17.146,5.974,47.889,47.889,0,0,0-6.017,4.093c-2.622,2.092-5.3,4.57-8.369,5.642a8.217,8.217,0,0,1-.976.286l-14.247-9.843c-.021-.039-.045-.074-.066-.113l-.587-.367c.092-.085.19-.171.283-.256.053-.049.11-.1.163-.146.037-.032.073-.065.1-.1l.034-.029c.031-.031.064-.057.092-.085q.817-.724,1.648-1.44s0,0,.008,0a70.422,70.422,0,0,1,13.72-9.432c.148-.075.3-.154.453-.225a45.707,45.707,0,0,1,6.917-2.789,40.407,40.407,0,0,1,3.963-1,33.6,33.6,0,0,1,10.5-.4c6.974.833,13.6,3.886,17.926,9.307C289.143,395.847,289.25,395.984,289.359,396.126Z" transform="translate(-229.515 -305.426)" fill="#f2f2f2"/>
  <path id="Path_11899" data-name="Path 11899" d="M289.614,405.775A41.828,41.828,0,0,0,264,403.312a18.013,18.013,0,0,0-5.289,1.969,10.331,10.331,0,0,0-3.74,3.947,21.381,21.381,0,0,1-2.726,4.4,6.325,6.325,0,0,1-4.8,1.918,16.435,16.435,0,0,1-6.3-1.747c-2.224-.98-4.519-2.033-7.005-1.939-.3.011-.3-.457,0-.468,4.326-.164,7.838,2.924,12,3.573a6.406,6.406,0,0,0,5.472-1.358,16.588,16.588,0,0,0,2.852-4.414,11.023,11.023,0,0,1,3.513-4,16.65,16.65,0,0,1,5.194-2.165,40.579,40.579,0,0,1,12.638-1.067,42.57,42.57,0,0,1,14.052,3.406C290.125,405.49,289.888,405.893,289.614,405.775Z" transform="translate(-229.927 -314.916)" fill="#fff"/>
  <path id="Path_11900" data-name="Path 11900" d="M316.908,393.471a6.275,6.275,0,0,1,4.737-6.6c.293-.072.418.379.125.451a5.811,5.811,0,0,0-4.394,6.151C317.4,393.771,316.934,393.769,316.908,393.471Z" transform="translate(-280.11 -305.846)" fill="#fff"/>
  <path id="Path_11901" data-name="Path 11901" d="M287.4,418.346a12.1,12.1,0,0,0,8.312,2.935c.3-.01.3.458,0,.468a12.582,12.582,0,0,1-8.643-3.072C286.842,418.479,287.173,418.149,287.4,418.346Z" transform="translate(-262.032 -324.85)" fill="#fff"/>
  <path id="Path_11902" data-name="Path 11902" d="M350.672,403.99a3.552,3.552,0,0,0,1.221,3.141c.23.2-.1.525-.331.331a3.981,3.981,0,0,1-1.359-3.472.242.242,0,0,1,.234-.234A.235.235,0,0,1,350.672,403.99Z" transform="translate(-300.242 -316.064)" fill="#fff"/>
  <path id="Path_11903" data-name="Path 11903" d="M931.032,488.564c-3.994-9.842-12.992-18.182-23.59-18.893a48.937,48.937,0,0,1,8.694,32.454c-.411,4.436-1.329,9.326,1.165,13.018a10.939,10.939,0,0,0,6.919,4.232,32.489,32.489,0,0,0,8.286.3l.629.288C934.775,509.47,935.026,498.406,931.032,488.564Z" transform="translate(-637.244 -355.926)" fill="#f2f2f2"/>
  <path id="Path_11904" data-name="Path 11904" d="M907.156,469.525a41.827,41.827,0,0,1,16.137,20.047,18.008,18.008,0,0,1,1.262,5.5,10.331,10.331,0,0,1-1.242,5.293,21.383,21.383,0,0,0-2.177,4.7,6.325,6.325,0,0,0,1.038,5.068,16.433,16.433,0,0,0,4.924,4.3c2.041,1.319,4.182,2.657,5.47,4.786.156.258.547,0,.391-.257-2.241-3.7-6.751-4.941-9.58-8.06a6.406,6.406,0,0,1-1.873-5.317,16.583,16.583,0,0,1,2.12-4.809,11.025,11.025,0,0,0,1.407-5.131,16.655,16.655,0,0,0-1.046-5.529,40.581,40.581,0,0,0-6.055-11.145,42.568,42.568,0,0,0-10.569-9.867c-.251-.165-.458.256-.208.419Z" transform="translate(-637.003 -355.561)" fill="#fff"/>
  <path id="Path_11905" data-name="Path 11905" d="M945.43,502.258a6.276,6.276,0,0,0,2.912-7.586c-.1-.284-.547-.141-.446.144a5.811,5.811,0,0,1-2.724,7.051C944.908,502.01,945.166,502.4,945.43,502.258Z" transform="translate(-659.994 -370.951)" fill="#fff"/>
  <path id="Path_11906" data-name="Path 11906" d="M938.083,538.1a12.1,12.1,0,0,1-7.021-5.33c-.157-.257-.548,0-.391.257a12.581,12.581,0,0,0,7.317,5.532c.291.082.384-.377.1-.458Z" transform="translate(-651.269 -394.022)" fill="#fff"/>
  <path id="Path_11907" data-name="Path 11907" d="M920.945,485.652a3.552,3.552,0,0,1-3.3.706c-.289-.085-.383.374-.1.458a3.981,3.981,0,0,0,3.648-.773.242.242,0,0,0,.067-.324.235.235,0,0,0-.324-.067Z" transform="translate(-643.253 -365.567)" fill="#fff"/>
  <path id="Path_11908" data-name="Path 11908" d="M844.893,529.9c.179.058.359.117.539.179a46.767,46.767,0,0,1,6.986,2.963c.175.088.351.18.523.273A49.317,49.317,0,0,1,867.082,544.7a47.9,47.9,0,0,1,4.291,5.877c1.767,2.852,3.455,6.085,5.986,8.127a8.212,8.212,0,0,0,.823.6l16.726-4.482c.033-.029.067-.055.1-.084l.676-.148c-.058-.111-.122-.225-.18-.336-.034-.065-.071-.128-.1-.193-.024-.043-.047-.086-.066-.125-.008-.014-.016-.028-.023-.039-.019-.04-.041-.075-.058-.111q-.526-.957-1.068-1.91s0,0-.006-.007a70.412,70.412,0,0,0-9.752-13.494c-.114-.121-.229-.245-.351-.364a45.689,45.689,0,0,0-5.577-4.952,40.381,40.381,0,0,0-3.4-2.276,33.592,33.592,0,0,0-9.751-3.907c-6.848-1.56-14.119-.912-20.011,2.741C845.19,529.711,845.043,529.8,844.893,529.9Z" transform="translate(-599.418 -390.039)" fill="#f2f2f2"/>
  <path id="Path_11909" data-name="Path 11909" d="M844.716,535.41a41.828,41.828,0,0,1,24.954,6.291,18.011,18.011,0,0,1,4.319,3.632,10.33,10.33,0,0,1,2.2,4.974,21.385,21.385,0,0,0,1.088,5.06,6.325,6.325,0,0,0,3.88,3.422,16.435,16.435,0,0,0,6.523.472c2.424-.176,4.939-.4,7.249.528.28.112.437-.329.158-.441-4.019-1.609-8.365.12-12.5-.668a6.406,6.406,0,0,1-4.7-3.118,16.587,16.587,0,0,1-1.2-5.116,11.023,11.023,0,0,0-1.966-4.944,16.651,16.651,0,0,0-4.164-3.785,40.584,40.584,0,0,0-11.544-5.253,42.569,42.569,0,0,0-14.38-1.515c-.3.02-.212.48.086.46Z" transform="translate(-599.147 -395.347)" fill="#fff"/>
  <path id="Path_11910" data-name="Path 11910" d="M898.425,536a6.276,6.276,0,0,0-2.242-7.811c-.251-.166-.521.217-.269.383a5.811,5.811,0,0,1,2.071,7.27C897.858,536.113,898.3,536.27,898.425,536Z" transform="translate(-630.211 -391.288)" fill="#fff"/>
  <path id="Path_11911" data-name="Path 11911" d="M910.711,571.647a12.1,12.1,0,0,1-8.815-.029c-.28-.111-.438.33-.158.441a12.581,12.581,0,0,0,9.173.012C911.192,571.96,910.99,571.538,910.711,571.647Z" transform="translate(-633.706 -417.566)" fill="#fff"/>
  <path id="Path_11912" data-name="Path 11912" d="M866.1,536.9a3.552,3.552,0,0,1-2.206,2.548c-.282.106-.08.529.2.423a3.98,3.98,0,0,0,2.447-2.814.242.242,0,0,0-.142-.3.235.235,0,0,0-.3.141Z" transform="translate(-610.826 -396.489)" fill="#fff"/>
  <circle id="Ellipse_544" data-name="Ellipse 544" cx="3.935" cy="3.935" r="3.935" transform="translate(79.553 49.125)" fill="#fd6584"/>
  <circle id="Ellipse_545" data-name="Ellipse 545" cx="3.935" cy="3.935" r="3.935" transform="translate(225.719 98.443) rotate(-80.783)" fill="#e6e6e6"/>
  <circle id="Ellipse_546" data-name="Ellipse 546" cx="3.935" cy="3.935" r="3.935" transform="translate(79.393 4.84)" fill="#e6e6e6"/>
  <path id="Path_11913" data-name="Path 11913" d="M575.773,246.927H574.65V216.156a17.809,17.809,0,0,0-17.809-17.809H491.649a17.809,17.809,0,0,0-17.809,17.809h0V384.967a17.809,17.809,0,0,0,17.809,17.809h65.192a17.809,17.809,0,0,0,17.809-17.809V268.83h1.123Z" transform="translate(-375.026 -191.844)" fill="#3f3d56"/>
  <path id="Path_11914" data-name="Path 11914" d="M578.377,223.369V391.933a13.3,13.3,0,0,1-13.3,13.3H499.571a13.3,13.3,0,0,1-13.3-13.3V223.369a13.3,13.3,0,0,1,13.3-13.3h7.951a6.318,6.318,0,0,0,5.849,8.705H550.72a6.321,6.321,0,0,0,5.849-8.705h8.51a13.3,13.3,0,0,1,13.3,13.3h0Z" transform="translate(-382.545 -198.934)" fill="#f2f2f2"/>
  <rect id="Rectangle_4738" data-name="Rectangle 4738" width="20.322" height="0.91" transform="translate(108.692 27.227)" fill="#fff"/>
  <rect id="Rectangle_4739" data-name="Rectangle 4739" width="20.322" height="0.91" transform="translate(139.619 27.227)" fill="#fff"/>
  <path id="Path_11915" data-name="Path 11915" d="M579.433,521.137H513.188a1.7,1.7,0,0,1,0-3.4h66.245a1.7,1.7,0,0,1,0,3.4Z" transform="translate(-397.794 -384.993)" fill="#ccc"/>
  <path id="Path_11916" data-name="Path 11916" d="M579.433,551.055H513.188a1.7,1.7,0,0,1,0-3.4h66.245a1.7,1.7,0,0,1,0,3.4Z" transform="translate(-397.794 -403.086)" fill="#ccc"/>
  <path id="Path_11917" data-name="Path 11917" d="M579.433,580.973H513.188a1.7,1.7,0,0,1,0-3.4h66.245a1.7,1.7,0,0,1,0,3.4Z" transform="translate(-397.794 -421.179)" fill="#ccc"/>
  <rect id="Rectangle_4740" data-name="Rectangle 4740" width="20.322" height="0.91" transform="translate(170.547 27.227)" fill="#fff"/>
  <rect id="Rectangle_4741" data-name="Rectangle 4741" width="20.322" height="0.91" transform="translate(108.692 190.506)" fill="#fff"/>
  <rect id="Rectangle_4742" data-name="Rectangle 4742" width="20.322" height="0.91" transform="translate(139.619 190.506)" fill="#fff"/>
  <rect id="Rectangle_4743" data-name="Rectangle 4743" width="20.322" height="0.91" transform="translate(170.547 190.506)" fill="#fff"/>
  <circle id="Ellipse_547" data-name="Ellipse 547" cx="30.804" cy="30.804" r="30.804" transform="translate(118.976 51.251)" fill="#d1d3d4"/>
  <circle id="Ellipse_548" data-name="Ellipse 548" cx="28.103" cy="28.103" r="28.103" transform="translate(121.677 55.318)" fill="#28aae1"/>
  <path id="Path_11918" data-name="Path 11918" d="M584.071,386.607c-.061,0-.122,0-.183,0a3.743,3.743,0,0,1-2.774-1.442l-4.429-5.694a3.75,3.75,0,0,1,.657-5.257l.159-.124a3.752,3.752,0,0,1,5.258.656,2.247,2.247,0,0,0,1.666.866,2.2,2.2,0,0,0,1.742-.7l8.993-9.493a3.751,3.751,0,0,1,5.3-.143l.146.138a3.75,3.75,0,0,1,.144,5.3l-13.955,14.73A3.74,3.74,0,0,1,584.071,386.607Z" transform="translate(-436.744 -292.171)" fill="#fff"/>
  <rect id="Rectangle_4744" data-name="Rectangle 4744" width="3.639" height="19.557" transform="translate(96.923 38.945)" fill="#3f3d56"/>
  <rect id="Rectangle_4745" data-name="Rectangle 4745" width="3.639" height="11.37" transform="translate(96.923 60.776)" fill="#3f3d56"/>
  <rect id="Rectangle_4746" data-name="Rectangle 4746" width="3.639" height="11.37" transform="translate(96.923 74.42)" fill="#3f3d56"/>
  <circle id="Ellipse_549" data-name="Ellipse 549" cx="1.819" cy="1.819" r="1.819" transform="translate(130.125 12.11)" fill="#fff"/>
  <path id="Path_11919" data-name="Path 11919" d="M559.788,414.23a28.1,28.1,0,0,1-28.025-26.121c-.046.65-.077,1.309-.077,1.974a28.1,28.1,0,1,0,56.205,0c0-.666-.032-1.324-.077-1.978A28.1,28.1,0,0,1,559.788,414.23Z" transform="translate(-410.008 -306.599)" fill="#231f20" opacity="0.16"/>
  <path id="Path_11920" data-name="Path 11920" d="M479.182,237.808l22.286.909,2.729-15.009-19.1-5.912Z" transform="translate(-289.782 -131.71)" fill="#ffb8b8"/>
  <path id="Path_11921" data-name="Path 11921" d="M666.276,340.139l.216-7.091-10.8-2.708-19.446-5.673a4.06,4.06,0,1,0-2.167,4.963l18.905,7.771Z" transform="translate(-468.452 -266.549)" fill="#ffb8b8"/>
  <path id="Path_11922" data-name="Path 11922" d="M706.725,354.692l6.076-8.666.151.02a129.417,129.417,0,0,1,15.871,3.148,4.994,4.994,0,0,1,3.234,2.688,5.237,5.237,0,0,1-.728,5.7,5.6,5.6,0,0,1-5.758,1.913Z" transform="translate(-515.862 -281.152)" fill="#28aae1"/>
  <path id="Path_11923" data-name="Path 11923" d="M478.666,481.985h-6.181l-2.94-23.839h9.122Z" transform="translate(-283.954 -277.059)" fill="#ffb8b8"/>
  <path id="Path_11924" data-name="Path 11924" d="M595.123,475.626l-6.111.924-6.471-23.132,8.011-1.363Z" transform="translate(-352.287 -273.376)" fill="#ffb8b8"/>
  <path id="Path_11925" data-name="Path 11925" d="M715.686,435.549l-21.376-3.639-.76,1.567a72.594,72.594,0,0,0-7.113,26.962c-.516,7.9-.82,16.251-.83,25-.016,13.558.676,26.138,1.77,37.585l11.732-.073a277.093,277.093,0,0,1,1.381-36.409c.9-8.623,2.146-16.678,3.59-24.111a165.877,165.877,0,0,0,11.282,31.67c4.1,8.67,12.533,18.692,16.633,27.363l12.6-1.512c-3.311-8.755-9.217-21.541-12.528-30.3-4.734-12.518-6.872-21.007-11.606-33.525a38.566,38.566,0,0,0,.158-7.089c-.22-3.938-1.04-8.665-3.434-11.816Z" transform="translate(-503.09 -333.09)" fill="#2f2e41"/>
  <path id="Path_11926" data-name="Path 11926" d="M732.668,376.947c1.068,2-1.468,6.129-3.3,6.525l-21.139-6.833L718.87,345.8l5.355.973,8.565,1.443,3.038,2.761a5.341,5.341,0,0,1,1.473,5.638Z" transform="translate(-516.77 -281.013)" fill="#28aae1"/>
  <path id="Path_11927" data-name="Path 11927" d="M681.823,388.611l-5.98-3.816-7.857,7.891-14.831,13.8a4.06,4.06,0,1,0,3.153,4.4l16.356-12.259Z" transform="translate(-480.477 -304.597)" fill="#ffb8b8"/>
  <path id="Path_11928" data-name="Path 11928" d="M717.493,373.984l-4.332-9.657.095-.12a129.471,129.471,0,0,1,10.831-12.02,4.994,4.994,0,0,1,3.965-1.4,5.24,5.24,0,0,1,4.519,3.542,5.6,5.6,0,0,1-1.3,5.925Z" transform="translate(-519.754 -284.018)" fill="#28aae1"/>
  <circle id="Ellipse_550" data-name="Ellipse 550" cx="9.401" cy="9.401" r="9.401" transform="translate(201.813 43.919)" fill="#ffb8b8"/>
  <path id="Path_11929" data-name="Path 11929" d="M747.318,312.567l-.036-.009-13.662-3.417a3.123,3.123,0,0,1-1.92-4.638l.451-.751a5.123,5.123,0,0,0,.21-4.893,5.393,5.393,0,0,0-3.1-2.648l-.045-.022-.287-.179a2.238,2.238,0,0,1-1.185-1.369,2.31,2.31,0,0,1,.226-1.863,11.3,11.3,0,0,1,5.164-4.552,11.657,11.657,0,0,1,8.568-.257,1.522,1.522,0,0,1,1.4-.356c7.076,1.714,7.658,6.463,6.26,14.086l1.654,6.673a3.343,3.343,0,0,1-2.982,4.138Zm-5.692-24.523h0ZM741.8,288h0Z" transform="translate(-528.511 -245.624)" fill="#2f2e41"/>
  <path id="Path_11930" data-name="Path 11930" d="M693.914,697.079h-3.527l-.63-3.33-1.613,3.33h-9.355a2.1,2.1,0,0,1-1.195-3.834l7.471-5.16v-3.367l7.858.469Z" transform="translate(-497.695 -485.974)" fill="#2f2e41"/>
  <path id="Path_11931" data-name="Path 11931" d="M814.346,697.079h-3.527l-.63-3.33-1.613,3.33h-9.355a2.1,2.1,0,0,1-1.2-3.834l7.471-5.16v-3.367l7.858.469Z" transform="translate(-570.526 -485.974)" fill="#2f2e41"/>
</svg>
