<svg xmlns="http://www.w3.org/2000/svg" xmlns:xlink="http://www.w3.org/1999/xlink" width="76.464" height="47.253" viewBox="0 0 76.464 47.253">
  <defs>
    <linearGradient id="linear-gradient" y1="0.5" x2="0.974" y2="0.5" gradientUnits="objectBoundingBox">
      <stop offset="0" stop-color="#c00"/>
      <stop offset="1" stop-color="#fd9900"/>
    </linearGradient>
  </defs>
  <path id="oo" d="M36.139,49.719c.185.156.382.312.577.465a23.63,23.63,0,1,1-.01-39.364,4.876,4.876,0,0,0-.526.478,25.414,25.414,0,0,0-.041,38.421Zm16.7-42.843A23.506,23.506,0,0,0,39.758,10.82a4.876,4.876,0,0,1,.526.478,25.414,25.414,0,0,1,.041,38.421c-.185.156-.382.312-.577.465A23.631,23.631,0,1,0,52.836,6.876Zm-14.6,5.066c-.306.239-.6.478-.892.736a23.613,23.613,0,0,0,0,35.652c.287.255.589.5.892.739.306-.236.6-.484.892-.739a23.613,23.613,0,0,0,0-35.652C38.837,12.423,38.538,12.181,38.232,11.942Z" transform="translate(0 -6.876)" fill="url(#linear-gradient)"/>
</svg>
