<?xml version="1.0" encoding="UTF-8"?>
<svg id="Layer_2" data-name="Layer 2" xmlns="http://www.w3.org/2000/svg" viewBox="0 0 35.29 34.99">
  <defs>
    <style>
      .cls-1 {
        fill: #3192d0;
      }
    </style>
  </defs>
  <g id="Layer_1-2" data-name="Layer 1">
    <path class="cls-1" d="m9.01,15.07h-1.7c-.16,0-.29-.13-.29-.29v-1.93c0-.16.13-.29.29-.29h1.67c.7,0,1.3.58,1.29,1.28-.01.68-.57,1.24-1.26,1.24h0Zm12.81,9.47c.11.38-.17.76-.56.76H4.12c-2.27,0-4.12-1.84-4.12-4.12v-11.04c0-2.27,1.84-4.12,4.12-4.12h23.82c2.27,0,4.12,1.84,4.12,4.12v11.04c0,.67-.16,1.31-.45,1.87-.13.25-.42.37-.69.29l-7.25-2.17c-1.34-.4-2.6.85-2.2,2.2l.35,1.17Zm-11.02-8.68c-.11-.11-.11-.29,0-.4,1.45-1.57.29-4.08-1.84-4.08h-2.54c-.32,0-.59.26-.59.59,0,.18,0,7.51,0,7.39,0,.32.26.59.59.59h2.54c2.12,0,3.29-2.5,1.84-4.08Zm8.03-3.9c0-.32-.26-.59-.59-.59s-.59.26-.59.59v5.17c0,.9-.73,1.63-1.63,1.63s-1.63-.73-1.63-1.63v-5.17c0-.32-.26-.59-.59-.59s-.59.26-.59.59v5.17c0,1.55,1.26,2.8,2.8,2.8s2.8-1.26,2.8-2.8v-5.17Zm1.86.3l2.09,3.49c.06.1.04-.15.04,3.6,0,.34.28.61.63.59.31-.02.55-.29.55-.61,0-3.72-.02-3.48.04-3.58l2.09-3.49c.17-.28.08-.64-.2-.81-.28-.17-.64-.08-.81.2l-1.46,2.43c-.11.19-.39.19-.5,0l-1.46-2.43c-.17-.28-.53-.37-.81-.2-.28.17-.37.53-.2.81h0Zm-13.39,6.5h1.67c.7,0,1.3-.58,1.29-1.28-.01-.68-.57-1.24-1.26-1.24h-1.7c-.16,0-.29.13-.29.29v1.93c0,.16.13.29.29.29Zm9.31,11.96v-1.03c0-.32-.26-.59-.59-.59s-.59.26-.59.59v1.03c0,.32.26.59.59.59s.59-.26.59-.59Zm-6.02-1.19l.73-.73c.23-.23.23-.6,0-.83-.23-.23-.6-.23-.83,0l-.73.73c-.37.37-.1,1,.42,1,.15,0,.3-.06.42-.17h0ZM16.62,1.62V.59c0-.32-.26-.59-.59-.59s-.59.26-.59.59v1.03c0,.32.26.59.59.59s.59-.26.59-.59Zm-5.29.89l-.73-.73c-.23-.23-.6-.23-.83,0-.23.23-.23.6,0,.83l.73.73c.11.11.27.17.42.17.52,0,.79-.63.42-1Zm10.23.83l.73-.73c.23-.23.23-.6,0-.83-.23-.23-.6-.23-.83,0l-.73.73c-.37.37-.1,1,.42,1,.15,0,.3-.06.42-.17h0Zm13.52,27.65l-3.94-3.31,1.64-1.64c.31-.31.18-.85-.25-.98l-9.2-2.75c-.45-.14-.87.28-.73.73l2.75,9.2c.13.43.66.56.98.25l1.64-1.64,3.31,3.94c.22.26.62.28.87.04l2.97-2.97c.24-.24.23-.64-.04-.87h0Z"/>
  </g>
</svg>