<svg xmlns="http://www.w3.org/2000/svg" width="16" height="13.5" viewBox="0 0 16 13.5">
  <path id="Path_12154" data-name="Path 12154" d="M459.75,551a2.388,2.388,0,0,1-2.25-2.5,2.263,2.263,0,1,1,4.5,0,2.388,2.388,0,0,1-2.25,2.5m.692,1h-1.384c-.105,0-.21.005-.312.014a.3.3,0,0,0-.186.509,5.03,5.03,0,0,1,1.44,3.53V557.2a.3.3,0,0,0,.3.3h2.015A1.687,1.687,0,0,0,464,555.815v-.257A3.562,3.562,0,0,0,460.442,552m-3.032,6.5h-7.82a1.592,1.592,0,0,1-1.59-1.59v-.857A4.057,4.057,0,0,1,452.053,552h2.894A4.057,4.057,0,0,1,459,556.053v.856a1.592,1.592,0,0,1-1.59,1.591M453.5,551a2.787,2.787,0,0,1-2.5-3c0-1.879.935-3,2.5-3s2.5,1.121,2.5,3a2.787,2.787,0,0,1-2.5,3" transform="translate(-448 -545)" fill="#28aae1" fill-rule="evenodd"/>
</svg>
