<?xml version="1.0" encoding="UTF-8"?>
<svg id="Layer_2" data-name="Layer 2" xmlns="http://www.w3.org/2000/svg" viewBox="0 0 32.52 32.65">
  <defs>
    <style>
      .cls-1 {
        fill: #3192d0;
      }
    </style>
  </defs>
  <g id="Layer_1-2" data-name="Layer 1">
    <g>
      <path class="cls-1" d="m24.87,15.94l-7.65,2.55,7.65,2.55,7.65-2.55-7.65-2.55Z"/>
      <path class="cls-1" d="m0,18.49l7.65,2.55,7.65-2.55-7.65-2.55-7.65,2.55Z"/>
      <path class="cls-1" d="m16.56.05c-.2-.07-.41-.07-.6,0l-7.35,2.45,7.65,2.55,7.65-2.55L16.56.05Z"/>
      <path class="cls-1" d="m8.61,32.65l6.7-2.23v-9.91l-6.7,2.23v9.91Z"/>
      <path class="cls-1" d="m0,29.73c0,.41.26.78.65.91l6.04,2.01v-9.91l-6.7-2.23v9.22Z"/>
      <path class="cls-1" d="m17.22,30.42l6.7,2.23v-9.91l-6.7-2.23v9.91Z"/>
      <path class="cls-1" d="m25.83,32.65l6.04-2.01c.39-.13.65-.5.65-.91v-9.22l-6.7,2.23v9.91Z"/>
      <path class="cls-1" d="m8.61,14.6l6.7,2.23V6.75l-6.7-2.23v10.09Z"/>
      <path class="cls-1" d="m23.91,14.6V4.52l-6.7,2.23v10.09l6.7-2.23Z"/>
    </g>
  </g>
</svg>