<?xml version="1.0" encoding="UTF-8"?>
<svg id="Layer_2" data-name="Layer 2" xmlns="http://www.w3.org/2000/svg" viewBox="0 0 34.99 34.89">
  <defs>
    <style>
      .cls-1 {
        fill: #3192d0;
        fill-rule: evenodd;
      }
    </style>
  </defs>
  <g id="Layer_1-2" data-name="Layer 1">
    <path class="cls-1" d="m17.49,0C21.58,0,24.9,3.31,24.9,7.4s-3.31,7.4-7.4,7.4-7.4-3.31-7.4-7.4S13.41,0,17.49,0h0Zm.67,21v13.89l13.7-5.33v-8.69l-10.71,4.17c-.31.12-.66,0-.82-.29l-2.17-3.75Zm-1.34,13.89v-13.89l-2.17,3.75c-.17.3-.54.41-.85.28l-10.69-4.16v8.69l13.7,5.33Zm15.42-21.41l-13.78,5.36,2.74,4.75,13.78-5.36-2.74-4.75Zm-15.72,5.36L2.74,13.47l-2.74,4.75,13.78,5.36,2.74-4.75Zm.97-2.69c-3.68,0-6.82-2.27-8.12-5.48l-5.08,1.98,13.2,5.13,13.2-5.13-5.08-1.98c-1.29,3.21-4.44,5.48-8.12,5.48h0Zm2.8-12.12l-4.39,4.39-1.5-1.88c-.37-.46-1.04-.54-1.5-.17-.46.37-.54,1.04-.17,1.51l2.2,2.77c.38.55,1.16.62,1.64.15l5.23-5.23c.42-.42.42-1.1,0-1.52-.42-.42-1.1-.42-1.52,0h0Z"/>
  </g>
</svg>