<?xml version="1.0" encoding="UTF-8"?>
<svg id="Layer_2" data-name="Layer 2" xmlns="http://www.w3.org/2000/svg" viewBox="0 0 34.19 34.65">
  <defs>
    <style>
      .cls-1 {
        fill: #3192d0;
        fill-rule: evenodd;
      }
    </style>
  </defs>
  <g id="Layer_1-2" data-name="Layer 1">
    <path class="cls-1" d="m23.16,0c3.63,0,6.58,2.95,6.58,6.58,0,.55-.07,1.08-.19,1.59-.37-.09-.74-.16-1.12-.2.12-.44.18-.91.18-1.39,0-3.01-2.44-5.45-5.45-5.45s-5.45,2.44-5.45,5.45h0c-.38.01-.76.04-1.14.1,0-.03,0-.07,0-.1C16.58,2.95,19.52,0,23.16,0ZM3.49,23.12l5.18,9.16c.25.44.09,1.01-.35,1.26l-1.76,1c-.44.25-1.01.09-1.26-.35L.12,25.02c-.25-.44-.09-1.01.35-1.26l1.76-1c.44-.25,1.01-.09,1.26.35Zm-1.13,1.19c-.35-.04-.66.21-.7.55-.04.35.21.66.55.7.35.04.66-.21.7-.55s-.21-.66-.55-.7Zm11.49-2.63c-2.17-.78-2.75-.97-4.89.27l-3.64,2.11,3.24,5.73.04-.02c.13-.09.3-.12.47-.08l8.59,2.3c1.09.29,2.11.16,3.07-.43l11.84-7.29c.61-.37.69-1.39.33-1.97-.79-1.27-2.97-.22-3.88.31l-6.53,3.8c-1.03.6-2.12.76-3.28.58-1.77-.28-3.45-.82-5.19-1.29-.3-.08-.48-.39-.4-.69s.39-.48.69-.4c1.42.38,2.81.83,4.25,1.12.73.09,1.33-.13,1.53-.89.18-.69-.25-1.34-.9-1.56-1.96-.36-3.86-1.05-5.36-1.59h0Zm3.87-13.94c-3.63,0-6.58,2.95-6.58,6.58s2.95,6.58,6.58,6.58,6.58-2.95,6.58-6.58c0-3.63-2.95-6.58-6.58-6.58Zm0,2.44c1.17,0,2.12.95,2.12,2.12s-.95,2.12-2.12,2.12-2.12-.95-2.12-2.12.95-2.12,2.12-2.12Zm-4.04,7.79c-.87-.97-1.41-2.25-1.41-3.65,0-3.01,2.44-5.45,5.45-5.45s5.45,2.44,5.45,5.45c0,1.41-.53,2.69-1.41,3.65-.49-1.77-2.11-3.07-4.04-3.07s-3.55,1.3-4.04,3.07h0Zm13.92-8.9c3.63,0,6.58,2.95,6.58,6.58,0,1.96-.86,3.72-2.22,4.93-1.21-.11-2.53.48-3.51,1.05l-1.03.6c-1.76-.05-3.42-.8-4.63-2.09.13-.12.26-.24.39-.36.73-.73,1.3-1.59,1.68-2.52.73-.64,1.69-1.02,2.74-1.02,1.93,0,3.55,1.3,4.04,3.07.87-.97,1.41-2.25,1.41-3.65,0-3.01-2.44-5.45-5.45-5.45-1.06,0-2.05.3-2.89.83-.16-.34-.35-.67-.56-.99,1-.62,2.19-.98,3.45-.98h0Zm0,2.44c-1.17,0-2.12.95-2.12,2.12s.95,2.12,2.12,2.12,2.12-.95,2.12-2.12c0-1.17-.95-2.12-2.12-2.12Zm-6.18-3.97c.64.35,1.23.79,1.76,1.32.09.09.18.19.27.28.73-.47,1.54-.81,2.38-1.01-.73-.61-1.66-.97-2.68-.97-.62,0-1.2.13-1.73.37Zm1.73-5.1c-1.17,0-2.12.95-2.12,2.12s.95,2.12,2.12,2.12,2.12-.95,2.12-2.12-.95-2.12-2.12-2.12Z"/>
  </g>
</svg>