<svg xmlns="http://www.w3.org/2000/svg" width="14.463" height="13.5" viewBox="0 0 14.463 13.5">
  <g id="svgexport-37" transform="translate(-267.535 -94.644)">
    <g id="Group_11122" data-name="Group 11122">
      <path id="Path_12155" data-name="Path 12155" d="M58.429,13.512l-.39.034a1.637,1.637,0,0,1-1.77-1.485L55.441,2.6a1.628,1.628,0,0,1,.476-1.3A1.713,1.713,0,0,1,56.986.828L58.541.692a.3.3,0,0,1,.306.407,2.524,2.524,0,0,0-.151.669l-.839,9.59a2.534,2.534,0,0,0,.589,1.863s.277.219-.016.292m5.136-9.838a1.054,1.054,0,1,1-1.139-.926,1.054,1.054,0,0,1,1.139.926M67.09,5.489a.48.48,0,0,0-.68-.056L64.16,7.358a.328.328,0,0,0-.037.461l.5.6A.452.452,0,1,1,63.936,9L62.429,7.2a.48.48,0,0,0-.66-.072L59.653,8.737l-.3,2.561c-.036.406.2,1.32.6,1.356l7.18.7a1.348,1.348,0,0,0,.753-.151c.152-.127.536-.507.553-.7l.5-4.871L67.091,5.489Z" transform="translate(212.1 94.3)" fill="#28aae1" fill-rule="evenodd"/>
      <path id="Path_12156" data-name="Path 12156" d="M67.251,13.837l-6.992-.612a1.669,1.669,0,0,1-1.514-1.8l.835-9.558A1.669,1.669,0,0,1,61.386.349l6.991.612a1.669,1.669,0,0,1,1.514,1.8l-.836,9.558a1.669,1.669,0,0,1-1.8,1.514Zm.078-.9.049,0a.765.765,0,0,0,.775-.7l.836-9.558A.765.765,0,0,0,68.3,1.86l-6.992-.611a.765.765,0,0,0-.826.693L59.646,11.5a.765.765,0,0,0,.692.826l6.991.612Z" transform="translate(212.1 94.3)" fill="#28aae1"/>
    </g>
  </g>
</svg>
