<?xml version="1.0" encoding="UTF-8"?>
<svg id="Layer_2" data-name="Layer 2" xmlns="http://www.w3.org/2000/svg" viewBox="0 0 35.41 30.1">
  <defs>
    <style>
      .cls-1 {
        fill: #3192d0;
        fill-rule: evenodd;
      }
    </style>
  </defs>
  <g id="Layer_1-2" data-name="Layer 1">
    <path class="cls-1" d="m30.1,10.62c2.93,0,5.31-2.38,5.31-5.31s-2.38-5.31-5.31-5.31-5.31,2.38-5.31,5.31,2.38,5.31,5.31,5.31ZM1.77,5.31h19.47c0,3.99,2.64,7.36,6.27,8.47l-7.84,3.13c-1.27.51-2.68.51-3.95,0L1.11,11.07c-.67-.27-1.11-.92-1.11-1.64v-2.34c0-.98.79-1.77,1.77-1.77h0Zm13.96,15.14L0,14.16v14.16C0,29.31.79,30.1,1.77,30.1h31.87c.98,0,1.77-.79,1.77-1.77v-14.16l-15.73,6.29c-1.27.51-2.68.51-3.95,0Z"/>
  </g>
</svg>