<svg xmlns="http://www.w3.org/2000/svg" width="92.184" height="29.8" viewBox="0 0 92.184 29.8">
  <path id="visa" d="M18.1,22c-.361-1.847-1.755-2.431-3.376-2.431H2.659l-.089.584c8.281,2.117,15.079,6.618,18.141,15.126Zm3.376,17.285-.764-4.006a18.071,18.071,0,0,0-9.725-9.814l6.077,22.958h7.878l11.75-28.854H28.767L21.476,39.288ZM42.5,48.469l4.678-28.9H39.705l-4.682,28.9ZM62.886,19.076c-7.382,0-12.556,3.918-12.6,9.541-.046,4.144,3.691,6.437,6.526,7.835,2.927,1.395,3.872,2.34,3.872,3.6,0,1.936-2.34,2.792-4.455,2.792A14.161,14.161,0,0,1,49.2,41.357l-.991-.5-1.036,6.481A21.769,21.769,0,0,0,55.5,48.875c7.832.046,12.921-3.872,13.009-9.857,0-3.287-2.024-5.762-6.3-7.835-2.609-1.3-4.183-2.251-4.183-3.6,0-1.214,1.349-2.477,4.275-2.477a12.415,12.415,0,0,1,5.581,1.083l.676.358,1.033-6.257a18.568,18.568,0,0,0-6.706-1.216Zm20.077.5A3.7,3.7,0,0,0,79.045,22L67.972,48.469H75.8c1.263-3.554,1.578-4.322,1.578-4.322h9.541s.227.991.9,4.322h6.933l-6.031-28.9H82.963ZM79.495,38.208s.63-1.667,2.973-8.058c-.046.046.63-1.667.991-2.746L84,29.881c1.395,6.887,1.713,8.327,1.713,8.327Z" transform="translate(-2.571 -19.076)" fill="#00579f"/>
</svg>
