<?xml version="1.0" encoding="UTF-8"?>
<svg id="Layer_2" data-name="Layer 2" xmlns="http://www.w3.org/2000/svg" viewBox="0 0 29.89 38.78">
  <defs>
    <style>
      .cls-1 {
        fill: #3192d0;
      }
    </style>
  </defs>
  <g id="Layer_1-2" data-name="Layer 1">
    <g>
      <path class="cls-1" d="m14.95,0C6.7,0,0,6.7,0,14.95c0,4.64,2.4,10.02,7.13,16,3.46,4.38,6.87,7.4,7.02,7.53.46.4,1.14.41,1.6,0,.14-.13,3.55-3.15,7.02-7.53,4.73-5.98,7.13-11.37,7.13-16C29.89,6.7,23.19,0,14.95,0Zm-6.23,22.66c-2.39-1.91-3.76-4.76-3.76-7.82,0-5.51,4.48-10,10-10s10,4.48,10,10c0,3.06-1.37,5.98-3.93,7.95-3.64,2.78-8.72,2.72-12.3-.13h0Z"/>
      <circle class="cls-1" cx="14.95" cy="13.33" r="1.82"/>
      <path class="cls-1" d="m11.34,16.24c.18-.12.22-.36.1-.53-1.87-2.74.06-6.62,3.51-6.62s5.39,3.88,3.51,6.62c-.12.17-.08.41.1.53.96.63,1.71,1.5,2.22,2.49.13.26.51.28.66.03.73-1.21,1.11-2.61,1.08-4.07-.09-4.21-3.54-7.51-7.75-7.41-4.09.1-7.39,3.46-7.39,7.57,0,1.4.38,2.74,1.08,3.91.15.26.53.24.66-.03.5-.99,1.26-1.86,2.22-2.49Z"/>
      <path class="cls-1" d="m18.83,21.35c.14-.08.21-.25.17-.41l-.04-.17c-.43-1.88-2.08-3.19-4.01-3.19s-3.58,1.31-4.01,3.19l-.04.18c-.04.16.03.32.17.41,2.29,1.39,5.33,1.46,7.76,0h0Z"/>
    </g>
  </g>
</svg>